<svg xmlns="http://www.w3.org/2000/svg" viewBox="0 0 256 256" role="img" aria-label="InSAR Studio">
  <defs>
    <linearGradient id="bg" x1="40" y1="24" x2="216" y2="232" gradientUnits="userSpaceOnUse">
      <stop offset="0" stop-color="#111827"/>
      <stop offset="1" stop-color="#020617"/>
    </linearGradient>
    <linearGradient id="orbit" x1="36" y1="188" x2="222" y2="58" gradientUnits="userSpaceOnUse">
      <stop offset="0" stop-color="#38bdf8"/>
      <stop offset="1" stop-color="#2563eb"/>
    </linearGradient>
    <linearGradient id="terrain" x1="65" y1="153" x2="190" y2="199" gradientUnits="userSpaceOnUse">
      <stop offset="0" stop-color="#5eead4"/>
      <stop offset="1" stop-color="#10b981"/>
    </linearGradient>
    <filter id="soft" x="-20%" y="-20%" width="140%" height="140%">
      <feDropShadow dx="0" dy="10" stdDeviation="12" flood-color="#000" flood-opacity=".28"/>
    </filter>
  </defs>
  <rect x="18" y="18" width="220" height="220" rx="54" fill="url(#bg)" filter="url(#soft)"/>
  <path d="M57 154c32-68 83-98 154-89" fill="none" stroke="url(#orbit)" stroke-width="9" stroke-linecap="round"/>
  <circle cx="198" cy="68" r="10" fill="#60a5fa"/>
  <circle cx="198" cy="68" r="18" fill="none" stroke="#60a5fa" stroke-width="3" opacity=".28"/>
  <path d="M74 165c22-9 34-9 52 0 17 9 30 9 51-1" fill="none" stroke="url(#terrain)" stroke-width="8" stroke-linecap="round"/>
  <path d="M72 189c18-8 34-8 52 0 19 8 36 8 60-1" fill="none" stroke="url(#terrain)" stroke-width="6" stroke-linecap="round" opacity=".9"/>
  <path d="M83 211c15-6 28-6 42 0 16 6 32 6 51-1" fill="none" stroke="#7dd3fc" stroke-width="5" stroke-linecap="round" opacity=".78"/>
  <path d="M87 121a54 54 0 0 1 76-50" fill="none" stroke="#f8fafc" stroke-width="10" stroke-linecap="round"/>
  <path d="M103 123a36 36 0 0 1 48-34" fill="none" stroke="#f8fafc" stroke-width="8" stroke-linecap="round" opacity=".9"/>
  <path d="M119 123a18 18 0 0 1 24-17" fill="none" stroke="#f8fafc" stroke-width="7" stroke-linecap="round" opacity=".82"/>
  <path d="M89 132l-21 30" fill="none" stroke="#f8fafc" stroke-width="10" stroke-linecap="round"/>
  <circle cx="91" cy="128" r="9" fill="#f8fafc"/>
</svg>
